HIERARCHY
ROOT Hips
{
	OFFSET 0.00000 0.00000 0.00000
	CHANNELS 6 Xposition Yposition Zposition Yrotation Zrotation Xrotation 
	JOINT Lumbar
	{
		OFFSET 0 0 0
		CHANNELS 3 Zrotation Xrotation Yrotation
		JOINT Neck
		{
			OFFSET 0.00 0.2701 0.00
			CHANNELS 3 Zrotation Xrotation Yrotation
			End Site
			{
				OFFSET 0.00 0.1379 0.00
			}
		}
		JOINT RightShoulder
		{
			OFFSET 0.0119 0.2289 0.1181
			CHANNELS 3 Zrotation Xrotation Yrotation
			JOINT RightElbow
			{
				OFFSET 0.00 -0.1475 0.00
				CHANNELS 2 Zrotation Yrotation
				JOINT RightWrist
				{
					OFFSET 0.00 -0.1605 0.00
					CHANNELS 2 Zrotation Xrotation
					End Site
					{
						OFFSET 0.0040 -0.1068 0.0006
					}
				}
			}
		}
		JOINT LeftShoulder
		{
			OFFSET 0.0119 0.2289 -0.1181
			CHANNELS 3 Zrotation Xrotation Yrotation
			JOINT LeftElbow
			{
				OFFSET 0.00 -0.1475 0.00
				CHANNELS 2 Zrotation Yrotation
				JOINT LeftWrist
				{
					OFFSET 0.00 -0.1605 0.00
					CHANNELS 2 Zrotation Xrotation
					End Site
					{
						OFFSET 0.0040 -0.1068 -0.0006
					}
				}
			}
		}
	}
	JOINT RightHip
	{
		OFFSET 0.0316 -0.0424 0.0458
		CHANNELS 3 Zrotation Xrotation Yrotation
		JOINT RightKnee
		{
			OFFSET 0.00 -0.2438 0.00
			CHANNELS 1 Zrotation
			JOINT RightAnkle
			{
				OFFSET 0.00 -0.2449 0.00
				CHANNELS 3 Zrotation Xrotation Yrotation
				End Site
				{
					OFFSET 0.1237 -0.0542 0.0051
				}
			}
		}
	}
	JOINT LeftHip
	{
		OFFSET 0.0316 -0.0424 -0.0458
		CHANNELS 3 Zrotation Xrotation Yrotation
		JOINT LeftKnee
		{
			OFFSET 0.00 -0.2438 0.00
			CHANNELS 1 Zrotation
			JOINT LeftAnkle
			{
				OFFSET 0.00 -0.2449 0.00
				CHANNELS 3 Zrotation Xrotation Yrotation
				End Site
				{
					OFFSET 0.1237 -0.0542 -0.0051
				}
			}
		}
	}
}
MOTION
Frames: 19
Frame Time: 0.02
0.00313 0.01001 -0.04407 -143.75051 -55.81619 5.2358 34.65205 6.57396 -4.97509 27.66032 -21.32959 -2.11993 150.14137 15.14869 52.13419 32.38417 77.03254 27.89946 -3.80271 122.34066 -2.50287 -53.16438 65.85602 -60.70029 55.15792 4.78769 64.70473 -3.4262 -14.42309 -17.02994 -8.18505 -1.52002 -3.05506 67.95023 2.51019 8.99685 -23.50838 -8.67782 0.75581 2.70852
0.00282 0.00994 -0.04418 -144.09082 -56.21817 5.18861 34.64086 6.54108 -4.95971 27.49002 -21.73432 -2.11993 150.10367 14.98831 51.82967 33.11484 75.84973 29.98786 -3.78438 122.6959 -2.01916 -53.19723 67.13644 -59.48293 54.86541 4.90643 65.12321 -3.29564 -13.94742 -17.00937 -8.17259 -1.52275 -3.05602 68.30361 2.66503 9.25318 -23.49533 -8.66965 0.75134 2.7062
0.0026 0.00982 -0.04436 -144.4344 -56.54871 5.12083 34.62415 6.49492 -4.88195 27.23845 -22.09376 -2.11993 150.02275 14.8326 51.64064 33.19821 75.10127 32.01972 -3.94303 123.22276 -1.77164 -53.16056 67.0984 -58.58829 54.38815 5.00341 65.53052 -3.13104 -13.15585 -17.05981 -8.16015 -1.55707 -3.07253 68.62408 2.84951 9.60296 -23.53146 -8.6628 0.73318 2.69712
0.00235 0.00972 -0.04451 -144.76998 -56.90735 5.06298 34.60792 6.45605 -4.83078 27.02951 -22.46686 -2.11993 149.95604 14.67604 51.40172 33.57414 74.17317 34.0189 -4.01241 123.67008 -1.42152 -53.15781 67.63653 -57.56356 53.99481 5.10856 65.93837 -2.98432 -12.52499 -17.07841 -8.14769 -1.57648 -3.08171 68.95507 3.01642 9.89507 -23.54745 -8.65429 0.72273 2.69181
0.00206 0.00963 -0.04465 -145.13674 -57.28548 5.001 34.5998 6.41116 -4.78546 26.79924 -22.86954 -2.11993 149.90652 14.50288 51.1462 33.96217 73.16905 36.27238 -4.10798 124.13427 -1.03239 -53.1543 68.27859 -56.46197 53.58633 5.22136 66.36763 -2.82664 -11.82129 -17.09725 -8.13525 -1.59828 -3.09205 69.30159 3.20256 10.25137 -23.56341 -8.64804 0.70697 2.68398
0.00186 0.00952 -0.04483 -145.43773 -57.60476 4.94321 34.57371 6.37574 -4.71418 26.59253 -23.19818 -2.11993 149.81291 14.36911 50.95462 34.16781 72.42603 37.97987 -4.19554 124.5992 -0.7887 -53.13237 68.38254 -55.59945 53.17149 5.31294 66.74768 -2.684 -11.1948 -17.13149 -8.12278 -1.6225 -3.10359 69.60819 3.35489 10.49569 -23.58759 -8.6382 0.69866 2.67965
0.00189 0.00936 -0.04514 -145.55882 -57.78983 4.90413 34.49895 6.37194 -4.58094 26.47711 -23.35093 -2.11993 149.61172 14.34928 50.91571 34.0424 72.30503 38.19245 -4.21487 125.03678 -0.8779 -53.07786 67.39164 -55.32379 52.78234 5.35075 67.00789 -2.59137 -10.8545 -17.19322 -8.11026 -1.64661 -3.11523 69.82445 3.40719 10.41356 -23.62166 -8.61872 0.71394 2.68655
0.002 0.0092 -0.04549 -145.61283 -57.91599 4.86983 34.40661 6.37777 -4.4249 26.38661 -23.42667 -2.11993 149.36851 14.36866 50.93827 33.75067 72.42858 37.85729 -4.22219 125.46653 -1.10889 -53.00646 65.88942 -55.27868 52.39511 5.36789 67.21616 -2.51519 -10.60354 -17.26741 -8.0977 -1.67192 -3.12745 69.99984 3.42397 10.21448 -23.66111 -8.59581 0.73712 2.69719
0.00207 0.00904 -0.04582 -145.69515 -58.06222 4.8323 34.32242 6.378 -4.28304 26.28038 -23.52763 -2.11993 149.14218 14.36862 50.92927 33.52765 72.43833 37.77158 -4.23824 125.88894 -1.2861 -52.93967 64.57961 -55.12393 52.01119 5.39488 67.43954 -2.43142 -10.31458 -17.33396 -8.08515 -1.69604 -3.13901 70.1871 3.45647 10.06541 -23.69727 -8.57442 0.75669 2.70612
0.00216 0.00886 -0.04617 -145.786 -58.23484 4.7986 34.23664 6.38328 -4.12285 26.1904 -23.67229 -2.11993 148.9208 14.37845 50.93498 33.31899 72.48316 37.67893 -4.24602 126.35926 -1.4306 -52.88034 63.40283 -54.99631 51.60531 5.41961 67.69908 -2.34671 -10.00392 -17.41092 -8.07267 -1.72389 -3.1527 70.40243 3.49218 9.93309 -23.7389 -8.5532 0.77575 2.71481
0.00221 0.00872 -0.04649 -145.84414 -58.33873 4.75816 34.15098 6.38005 -3.99628 26.07296 -23.70318 -2.11993 148.6832 14.37305 50.92882 33.03948 72.49643 37.47499 -4.26645 126.73099 -1.6684 -52.80635 61.83181 -54.86845 51.24506 5.44389 67.87029 -2.26857 -9.7634 -17.46876 -8.06 -1.74397 -3.16199 70.54878 3.51195 9.73658 -23.76971 -8.5308 0.7981 2.72505
0.00216 0.00865 -0.04671 -145.81966 -58.27326 4.6996 34.0623 6.35502 -3.96832 25.879 -23.48191 -2.11993 148.37875 14.34722 50.8245 32.69761 72.45768 37.06353 -4.31953 126.78234 -2.17104 -52.66022 59.42294 -54.63324 51.0339 5.47688 67.81658 -2.20225 -9.69955 -17.46573 -8.04706 -1.74095 -3.15814 70.525 3.5005 9.39642 -23.76895 -8.50615 0.82568 2.73785
0.00205 0.0086 -0.0469 -145.76641 -58.13971 4.63377 33.97601 6.32042 -3.97542 25.65591 -23.14082 -2.11993 148.06353 14.29673 50.71379 32.27987 72.36122 36.56369 -4.38582 126.74108 -2.75035 -52.506 56.62486 -54.39739 50.86252 5.50952 67.67423 -2.14245 -9.70386 -17.44353 -8.03387 -1.73017 -3.14991 70.43101 3.4738 8.99614 -23.75689 -8.48043 0.8565 2.75216
0.00194 0.00855 -0.04709 -145.73173 -58.03403 4.57044 33.89339 6.28758 -3.96648 25.44309 -22.82672 -2.11993 147.77751 14.23982 50.63992 31.83468 72.22369 36.12948 -4.44863 126.77681 -3.27027 -52.38044 53.92073 -54.19349 50.66184 5.53901 67.56891 -2.08148 -9.6754 -17.43313 -8.02064 -1.72368 -3.14414 70.36315 3.45064 8.61734 -23.74997 -8.45507 0.88743 2.76644
0.00192 0.00849 -0.04734 -145.67058 -57.94004 4.51117 33.78916 6.26591 -3.95656 25.2438 -22.62648 -2.11993 147.3964 14.26756 50.42974 31.62942 72.36925 35.57658 -4.5006 126.67368 -3.91284 -52.15258 51.52049 -53.86512 50.51936 5.58097 67.4772 -2.01395 -9.65751 -17.41043 -8.0081 -1.71402 -3.1364 70.32012 3.43862 8.25167 -23.74331 -8.43 0.91283 2.77847
0.00171 0.00845 -0.04747 -145.65977 -57.80526 4.44103 33.73189 6.2187 -3.95808 25.00886 -22.16086 -2.11993 147.2 14.10151 50.49515 30.92786 71.92055 35.24709 -4.57825 126.82701 -4.29881 -52.13135 48.43623 -53.79162 50.25145 5.59808 67.33467 -1.96085 -9.63255 -17.40828 -7.99399 -1.70913 -3.13173 70.2069 3.40267 7.85533 -23.7333 -8.40425 0.94933 2.795
0.0011 0.00844 -0.04734 -145.78507 -57.58367 4.34806 33.79422 6.10244 -3.97589 24.6843 -20.99866 -2.11993 147.61244 13.50031 51.3742 28.71362 69.73479 35.6417 -4.72571 127.80077 -4.10572 -52.72074 43.27036 -54.43313 49.74136 5.53947 67.09139 -1.95122 -9.57348 -17.47047 -7.97619 -1.71885 -3.13651 69.93693 3.28271 7.30529 -23.71696 -8.37575 1.02545 2.82801
0.00029 0.00845 -0.04709 -145.96408 -57.32193 4.24348 33.90571 5.96107 -4.00515 24.32414 -19.5728 -2.11993 148.19253 12.68676 52.52095 26.035 66.97061 36.24932 -4.89879 129.01701 -3.62335 -53.50925 37.4888 -55.32931 49.08039 5.45764 66.79675 -1.95506 -9.5049 -17.5534 -7.95666 -1.73361 -3.1445 69.59519 3.14282 6.74043 -23.6976 -8.34674 1.11105 2.86479
-0.00046 0.00846 -0.04687 -146.12554 -57.07291 4.14046 34.00086 5.83158 -4.03403 23.97949 -18.26326 -2.11993 148.63407 11.90918 53.51136 23.67341 64.54431 36.70815 -5.05799 130.06613 -3.1754 -54.1844 32.1772 -56.09866 48.4163 5.39082 66.51441 -1.9489 -9.43789 -17.62481 -7.93758 -1.74651 -3.15114 69.27355 3.02721 6.24066 -23.67946 -8.31883 1.18554 2.89677
